<svg xmlns="http://www.w3.org/2000/svg" xmlns:xlink="http://www.w3.org/1999/xlink" width="575.28" height="453.45" viewBox="0 0 575.28 453.45">
  <defs>
    <radialGradient id="radial-gradient" cx="0.5" cy="0.499" r="0.478" gradientTransform="translate(-0.049) scale(1.098 1)" gradientUnits="objectBoundingBox">
      <stop offset="0" stop-color="#ffc8af"/>
      <stop offset="1" stop-color="#ffbb9c"/>
    </radialGradient>
    <radialGradient id="radial-gradient-2" cx="0.507" cy="0.49" r="0.451" gradientTransform="matrix(1.232, -0.21, 0.265, 0.978, -0.311, 0.174)" xlink:href="#radial-gradient"/>
    <radialGradient id="radial-gradient-3" cx="0.5" cy="0.5" r="0.532" gradientTransform="translate(0.054) scale(0.891 1)" xlink:href="#radial-gradient"/>
    <radialGradient id="radial-gradient-4" cx="0.5" cy="0.5" r="0.511" gradientTransform="translate(0.021) scale(0.958 1)" xlink:href="#radial-gradient"/>
    <radialGradient id="radial-gradient-5" cx="1.47" cy="-0.008" r="4.144" gradientTransform="translate(0.306) scale(0.389 1)" xlink:href="#radial-gradient"/>
    <radialGradient id="radial-gradient-6" cx="0.182" cy="0.437" r="1.813" gradientTransform="translate(0.33) scale(0.34 1)" xlink:href="#radial-gradient"/>
    <linearGradient id="linear-gradient" x1="4.514" y1="-3.242" x2="3.025" y2="-2.458" gradientUnits="objectBoundingBox">
      <stop offset="0" stop-color="#606bf1"/>
      <stop offset="1" stop-color="#58479f"/>
    </linearGradient>
    <linearGradient id="linear-gradient-2" x1="8.924" y1="-5.132" x2="7.571" y2="-4.339" xlink:href="#linear-gradient"/>
    <linearGradient id="linear-gradient-3" x1="6.918" y1="-3.36" x2="5.26" y2="-2.587" xlink:href="#linear-gradient"/>
  </defs>
  <g id="header_img" transform="translate(-672 -219.564)">
    <rect id="Rectangle_3162" data-name="Rectangle 3162" width="129.928" height="121.271" transform="translate(792.525 245.323)" fill="#112b46"/>
    <rect id="Rectangle_3163" data-name="Rectangle 3163" width="129.928" height="12.826" transform="translate(792.525 245.323)" fill="#1d262d"/>
    <path id="Path_23153" data-name="Path 23153" d="M168.175,24.857a2.344,2.344,0,1,1-.682-1.666A2.357,2.357,0,0,1,168.175,24.857Z" transform="translate(726.255 227.032)" fill="#606bf1"/>
    <path id="Path_23154" data-name="Path 23154" d="M175.5,24.857a2.344,2.344,0,1,1-.682-1.666A2.357,2.357,0,0,1,175.5,24.857Z" transform="translate(728.684 227.032)" fill="#fbd15b"/>
    <path id="Path_23155" data-name="Path 23155" d="M182.345,25.034a2.358,2.358,0,1,1-2.358-2.344,2.358,2.358,0,0,1,2.358,2.344Z" transform="translate(730.958 227.095)" fill="#ff8578"/>
    <rect id="Rectangle_3164" data-name="Rectangle 3164" width="18.407" height="1.545" transform="translate(815.62 270.07)" fill="#ff8578"/>
    <rect id="Rectangle_3165" data-name="Rectangle 3165" width="18.407" height="1.545" transform="translate(837.224 270.07)" fill="#fbd15b"/>
    <rect id="Rectangle_3166" data-name="Rectangle 3166" width="28.543" height="1.545" transform="translate(821.321 278.408)" fill="#606bf1"/>
    <rect id="Rectangle_3167" data-name="Rectangle 3167" width="14.505" height="1.545" transform="translate(854.579 278.408)" fill="#ff8578"/>
    <rect id="Rectangle_3168" data-name="Rectangle 3168" width="12.533" height="1.545" transform="translate(831.217 286.746)" fill="#fbd15b"/>
    <rect id="Rectangle_3169" data-name="Rectangle 3169" width="41.582" height="1.545" transform="translate(850.996 286.746)" fill="#fbd15b"/>
    <rect id="Rectangle_3170" data-name="Rectangle 3170" width="47.523" height="1.545" transform="translate(840.953 295.07)" fill="#606bf1"/>
    <rect id="Rectangle_3171" data-name="Rectangle 3171" width="14.624" height="1.545" transform="translate(829.073 303.408)" fill="#ff8578"/>
    <rect id="Rectangle_3172" data-name="Rectangle 3172" width="14.624" height="1.545" transform="translate(849.957 303.408)" fill="#606bf1"/>
    <rect id="Rectangle_3173" data-name="Rectangle 3173" width="21.271" height="1.545" transform="translate(815.62 346.628)" fill="#ff8578"/>
    <rect id="Rectangle_3174" data-name="Rectangle 3174" width="21.271" height="1.545" transform="translate(844.35 346.628)" fill="#fbd15b"/>
    <rect id="Rectangle_3175" data-name="Rectangle 3175" width="21.271" height="1.545" transform="translate(872.307 346.628)" fill="#ff8578"/>
    <rect id="Rectangle_3176" data-name="Rectangle 3176" width="41.582" height="1.545" transform="translate(821.321 338.304)" fill="#606bf1"/>
    <rect id="Rectangle_3177" data-name="Rectangle 3177" width="41.582" height="1.545" transform="translate(869.376 338.304)" fill="#ff8578"/>
    <rect id="Rectangle_3178" data-name="Rectangle 3178" width="41.263" height="1.545" transform="translate(831.217 329.966)" fill="#ff8578"/>
    <rect id="Rectangle_3179" data-name="Rectangle 3179" width="11.481" height="1.545" transform="translate(876.076 329.966)" fill="#fbd15b"/>
    <rect id="Rectangle_3180" data-name="Rectangle 3180" width="15.53" height="1.545" transform="translate(828.526 321.642)" fill="#fbd15b"/>
    <rect id="Rectangle_3181" data-name="Rectangle 3181" width="15.53" height="1.545" transform="translate(852.301 321.642)" fill="#606bf1"/>
    <rect id="Rectangle_3182" data-name="Rectangle 3182" width="15.53" height="1.545" transform="translate(877.821 321.642)" fill="#ff8578"/>
    <rect id="Rectangle_3183" data-name="Rectangle 3183" width="21.777" height="1.545" transform="translate(846.521 313.304)" fill="#fbd15b"/>
    <rect id="Rectangle_3184" data-name="Rectangle 3184" width="21.777" height="1.545" transform="translate(816.526 313.304)" fill="#606bf1"/>
    <rect id="Rectangle_3185" data-name="Rectangle 3185" width="1.985" height="1.985" transform="translate(803.58 268.592)" fill="#f9fbfc"/>
    <path id="Path_23156" data-name="Path 23156" d="M100.775,107.438H98.79v-4h1.985Zm0-10.1H98.79v-4h1.985Zm0-10.1H98.79v-4h1.985Zm0-10.1H98.79v-4h1.985Zm0-10.1H98.79V63.019h1.985Zm0-10.1H98.79v-4h1.985Zm0-10.083H98.79v-4h1.985Z" transform="translate(704.79 233.796)" fill="#f9fbfc"/>
    <rect id="Rectangle_3186" data-name="Rectangle 3186" width="1.985" height="1.985" transform="translate(803.58 347.294)" fill="#f9fbfc"/>
    <rect id="Rectangle_3187" data-name="Rectangle 3187" width="106.993" height="65.956" transform="translate(950.41 219.564)" fill="#132f4e"/>
    <path id="Path_23157" data-name="Path 23157" d="M244.442,20.859l-12.733,5.434,12.733,5.328L242.8,35.484,227.54,28.664V23.949L242.8,17.09Z" transform="translate(747.524 225.236)" fill="#f9fbfc"/>
    <path id="Path_23158" data-name="Path 23158" d="M257.709,10.729l-9.23,35.482-4.409-1.026L253.393,9.73Z" transform="translate(753.01 222.793)" fill="#f9fbfc"/>
    <path id="Path_23159" data-name="Path 23159" d="M275.119,23.946v4.715L259.855,35.48l-1.665-3.863,12.693-5.328L258.19,20.869l1.665-3.769Z" transform="translate(757.697 225.24)" fill="#f9fbfc"/>
    <rect id="Rectangle_3188" data-name="Rectangle 3188" width="60.935" height="43.42" transform="translate(1053.727 347.334)" fill="#c6d7ff"/>
    <path id="Path_23160" data-name="Path 23160" d="M307.841,103.727c-1.958,0-2.664.533-2.664,2v6.526c0,2.557-1.066,3.33-2.837,3.836a3.263,3.263,0,0,1,2.837,3.756v6.526c0,1.465.679,1.985,2.664,1.985v2.864c-4.941,0-6.34-1.585-6.34-4.875v-6.233c0-1.771-.466-2.464-2.091-2.464v-3.263c1.625,0,2.091-.719,2.091-2.491V105.7c0-3.33,1.332-4.888,6.34-4.888Z" transform="translate(771.378 253.024)" fill="#f1f2f2"/>
    <path id="Path_23161" data-name="Path 23161" d="M319.58,105.682v6.193c0,1.771.466,2.491,2.118,2.491v3.263c-1.652,0-2.118.693-2.118,2.464v6.26c0,3.29-1.4,4.875-6.34,4.875v-2.864c1.931,0,2.664-.519,2.664-1.985v-6.54c0-2.517,1.052-3.29,2.837-3.756-1.785-.506-2.837-1.332-2.837-3.836v-6.526c0-1.465-.653-2-2.664-2v-2.864C318.155,100.794,319.58,102.379,319.58,105.682Z" transform="translate(775.969 253.04)" fill="#f1f2f2"/>
    <rect id="Rectangle_3189" data-name="Rectangle 3189" width="68.367" height="45.725" transform="translate(751 229)" fill="#407bff"/>
    <path id="Path_23163" data-name="Path 23163" d="M268.25,117.807c-.147,1.505-2.211,17.315-18.434,17.315-17.022,0-14.172-16.849-14.172-16.849v-.107a16.809,16.809,0,0,1,5.328-.253v-7.991L260.3,99.12h.693v18.647a35.349,35.349,0,0,1,7.259.04Z" transform="translate(750.154 252.463)" fill="url(#radial-gradient)"/>
    <path id="Path_23164" data-name="Path 23164" d="M263.252,74.087a22.217,22.217,0,0,1,5.807,10.775c1.851,8.178.107,16.849-2.278,24.734a12.614,12.614,0,0,1-1.692,3.849,13.318,13.318,0,0,1-2.118,2.131l-10.309,8.99c-2.318,2.038-16.636,3.729-19.366,1.785-10.522-7.525-12.547-29.3-10.442-40.477C226.412,67.387,250.173,60.768,263.252,74.087Z" transform="translate(745.722 241.828)" fill="url(#radial-gradient-2)"/>
    <path id="Path_23165" data-name="Path 23165" d="M248.614,90.838c.133-1.785,1.971-3.729,3.809-2.571s1.452,4.355.666,6.087c-.626,1.332-2.664,2.864-4.089,1.585-1.172-1.052.653-2.3.706-3.277s-1.692-1.505-.972-2.437" transform="translate(754.5 248.745)" fill="#f7b094"/>
    <path id="Path_23166" data-name="Path 23166" d="M248.872,98.6a5.448,5.448,0,0,0,5.994-3.57,20.766,20.766,0,0,0,.733-5.714,13.8,13.8,0,0,1,.466,6.313c-.493,3.889-1.865,7.592-4.915,7.645S248.872,98.6,248.872,98.6Z" transform="translate(754.575 249.21)" fill="#f7b094"/>
    <path id="Path_23167" data-name="Path 23167" d="M258.272,105.406l-.213.067c-1.185.16-1.665-1.332-1.838-2.171a39.063,39.063,0,0,1-.413-6.353,4.915,4.915,0,0,0-.2-1.7c-.666-1.518-2.437-2.517-2.983-4.089-.639-1.838,1.145-3.676.44-5.687-1.079-3.077-5.035-3.783-7.885-3.743a88.665,88.665,0,0,0-12.706,1.505c-4.475.693-10.189,1.332-14.118-1.478-4.755-3.41-6.726-12.28-3.183-17.142a11.428,11.428,0,0,1,8.791-4.129c3.4-.08,6.273,1.945,9.39,2.957,2.491.812,4.888-1.558,7.219-2.025,2.917-.586,4.156,2.664,6.739,2.664s4.968-1.878,7.405-2.318c4.861-.892,4.568,4,7.832,5.661,2.025,1.039,4.648.413,6.66,1.465,1.558.8,1.785,2.211,2.118,3.8a37.455,37.455,0,0,0,.759,4.289,9.762,9.762,0,0,0,2.211,2.85,10.362,10.362,0,0,1,1.811,3.436A21.31,21.31,0,0,1,277,91.994a59.058,59.058,0,0,1-3.649,14.358c-1.066,3.01-1.465,6.127-3.1,8.964-.44.773-2.384,3-3.117,1.332a2.543,2.543,0,0,1-.107-1.145c.226-3.09,3.1-23.029-4.449-20.631a5.328,5.328,0,0,0-3.237,3.33,12.906,12.906,0,0,0-.666,5.514v.812a.946.946,0,0,1-.4.879Z" transform="translate(742.817 239.637)" fill="#1d262d"/>
    <path id="Path_23168" data-name="Path 23168" d="M239.729,113.851c8.578-1.332,14.251-8.151,14.251-8.151a15.637,15.637,0,0,1-14.771,11.987Z" transform="translate(751.397 254.647)" fill="#f7b094"/>
    <path id="Path_23169" data-name="Path 23169" d="M2.131,0h7.991a2.171,2.171,0,0,1,2.171,2.171V120.085H0V2.158A2.171,2.171,0,0,1,2.131,0Z" transform="translate(1017.472 644.364) rotate(180)" fill="#0a2033"/>
    <path id="Path_23170" data-name="Path 23170" d="M8.418,0H59.177a8.4,8.4,0,0,1,8.4,8.4v1.851H0V8.4A8.4,8.4,0,0,1,8.418,0Z" transform="translate(1045.149 536.24) rotate(180)" fill="#30475e"/>
    <path id="Path_23171" data-name="Path 23171" d="M2.131,0h7.991a2.171,2.171,0,0,1,2.171,2.171V29.489H0V2.171A2.171,2.171,0,0,1,2.131,0Z" transform="translate(1017.472 659.881) rotate(180)" fill="#0a2033"/>
    <path id="Path_23172" data-name="Path 23172" d="M206.91,326.982a7.192,7.192,0,1,0,7.192-7.192A7.192,7.192,0,0,0,206.91,326.982Z" transform="translate(740.676 325.706)" fill="#0a2033"/>
    <path id="Path_23173" data-name="Path 23173" d="M291.87,326.982a7.192,7.192,0,1,0,7.192-7.192A7.192,7.192,0,0,0,291.87,326.982Z" transform="translate(768.875 325.706)" fill="#0a2033"/>
    <rect id="Rectangle_3190" data-name="Rectangle 3190" width="24.72" height="21.604" transform="translate(1023.719 642.833) rotate(180)" fill="#30475e"/>
    <path id="Path_23174" data-name="Path 23174" d="M0,0H127.544V2.5a7.659,7.659,0,0,1-7.659,7.659H7.659A7.659,7.659,0,0,1,0,2.5Z" transform="translate(1075.13 647.894) rotate(180)" fill="#407bff"/>
    <rect id="Rectangle_3191" data-name="Rectangle 3191" width="4.262" height="80.647" transform="translate(1007.096 538.664)" fill="#30475e"/>
    <path id="Path_23175" data-name="Path 23175" d="M312.668,164.631a5.008,5.008,0,0,0-5.168,5.328c.839,14.651-2.264,50.346-15.9,62.6-16.662,14.891-63.932,12.866-63.932,12.866s-7.792,9.576,7.805,11.708,59.59.706,70.232-9.23c10.3-9.6,16.409-34.79,11.8-78.583a5.048,5.048,0,0,0-4.848-4.542Z" transform="translate(746.919 274.206)" fill="#407bff"/>
    <path id="Path_23176" data-name="Path 23176" d="M228.875,300.13l5.621,12.813-17.222,7.552-5.634-12.853Z" transform="translate(742.246 319.181)" fill="url(#radial-gradient-3)"/>
    <path id="Path_23177" data-name="Path 23177" d="M320.191,193.22c-1.066,2.131-77.557,0-84.776.706,0,0-46.817,22.35-53.543,43.261a22.963,22.963,0,0,0-.653,8.218c1.865,29.449,35.4,99.973,35.4,99.973l5.155-2.251,17.235-7.512,2.451-1.066s-26.638-79.276-21.311-83.524,65.61-14.9,86.574-20.565S320.191,193.22,320.191,193.22Z" transform="translate(732.11 283.696)" fill="#56548c"/>
    <path id="Path_23178" data-name="Path 23178" d="M179.983,302.61l1.345,19.246h-18.78L161.19,302.57Z" transform="translate(725.501 319.991)" fill="url(#radial-gradient-4)"/>
    <path id="Path_23179" data-name="Path 23179" d="M245.065,193.26l-.679.293s-78.37,11-91.143,32.991c-8.3,14.291,7.765,118.78,7.765,118.78l27.73.067s-4.156-87.041-2.77-91.9c1.558-5.541,4.222-7.539,5.328-8.111a22.963,22.963,0,0,1,.653-8.218c6.66-20.911,53.543-43.261,53.543-43.261A1.332,1.332,0,0,1,245.065,193.26Z" transform="translate(722.073 283.709)" fill="#3d3d7a"/>
    <path id="Path_23180" data-name="Path 23180" d="M297.585,138.89l-5.261.719a257.065,257.065,0,0,1-4.409,28.343l-65.49,24.854-.892,4.755-.812-.067c0,.972,0,1.931.067,2.824.147,5.474.519,9.4,1.092,10.988a1.332,1.332,0,0,0,.373.653c1.785,1.452,24.947-1.332,49.987,7.832,21.71,7.991,33.884,16.689,34.443,15.517C313.514,221.122,301.088,165.448,297.585,138.89Z" transform="translate(745.26 265.663)" fill="#183864"/>
    <path id="Path_23181" data-name="Path 23181" d="M290.749,171.183c-1.745,8.378-6.26,25.067-15.1,27.3-11.561,2.93-33.911,2.784-54.848,1.652,0-.892,0-1.851-.067-2.824l.812.067.892-4.755,65.477-24.854a257.058,257.058,0,0,0,4.409-28.343,1.633,1.633,0,0,0,0,.24C292.467,141.854,293.359,158.836,290.749,171.183Z" transform="translate(745.263 265.843)" fill="#132f4e"/>
    <path id="Path_23182" data-name="Path 23182" d="M228.275,123.18c-1.172,2.131-2.85,24.893-3.769,47.5L211.12,158.183C216.834,147.181,228.275,123.18,228.275,123.18Z" transform="translate(742.074 260.449)" fill="#132f4e"/>
    <path id="Path_23183" data-name="Path 23183" d="M231.306,181.952c-11.308,1.958-21.684,3.636-21.684,3.636v.559C197.05,176.1,177.91,147.641,177.91,147.641s5.727-6.873,7.152-8.671c.213-.28,31.407,21.191,33,21,.413,0,2.011-2.864,4.129-7.033l13.386,12.493c-.213,5.328-.386,10.749-.493,15.836Z" transform="translate(731.051 265.689)" fill="#f7b094"/>
    <path id="Path_23184" data-name="Path 23184" d="M210.257,175l-.28,9.323H176S179.383,171,188.587,171s12.773,4.875,12.773,4.875Z" transform="translate(730.417 276.321)" fill="url(#radial-gradient-5)"/>
    <path id="Path_23185" data-name="Path 23185" d="M190.178,141.2l.253.213c-1.425,1.8-7.152,8.671-7.152,8.671l-3.543-2.5a8.831,8.831,0,0,1-8.471-.107c-4.755-2.571-1.811-8.724-1.572-9.457-.919.266-6.66,4.861-7.5,4.369s-1.558-2.1,4.808-8.378,14.984,1.785,15.237,1.785Z" transform="translate(725.655 263.249)" fill="#f7b094"/>
    <path id="Path_23186" data-name="Path 23186" d="M169.512,143.576s-1.332,2.571,1.066,3.676a24.268,24.268,0,0,0,9.23,1.732c2.038-.2,3.649-3.05,3.649-3.05l-6.167-5.794h-4.941Z" transform="translate(728.141 266.078)" fill="#f7b094"/>
    <path id="Path_23187" data-name="Path 23187" d="M169.489,144.856c.36-1.252,3.863-.586,6.047-.533,1.6,0,2.477-.373,2.97-1.6s-1.838-3.157-2.291-2.557.839,1.478.879,2.278-2.291,1.079-4.076,1.079a43.592,43.592,0,0,0-4.888.466Z" transform="translate(727.805 266.05)" fill="#e8987c"/>
    <path id="Path_23188" data-name="Path 23188" d="M290.955,172.734l-33.3-11.814c-2.424,4.528-5.021,7.991-7.592,8.617-3.9,1.026-13.319,2.784-22.8,4.449l-3.756.679c-11.308,1.958-21.684,3.636-21.684,3.636v.919l-.253,8.4v2.131a236.957,236.957,0,0,1,25.6.426c19.979,1.425,45.751,2.278,54.289-1.745,4-1.891,7.192-8.111,9.7-15.77Z" transform="translate(738.904 272.975)" fill="url(#radial-gradient-6)"/>
    <path id="Path_23189" data-name="Path 23189" d="M243.932,160.92l33.351,11.814-1.518,4.449-33-14.158Z" transform="translate(752.575 272.975)" fill="#f7b094"/>
    <path id="Path_23190" data-name="Path 23190" d="M251.214,176.785c-2.424,4.528-5.021,7.991-7.592,8.617-3.9,1.026-13.319,2.784-22.8,4.449.107-5.088.28-10.456.493-15.836.919-22.643,2.6-45.365,3.769-47.5,1.918-3.556,7.152-11.281,15.41-13.039v.107s-2.85,16.849,14.172,16.849c16.223,0,18.287-15.77,18.434-17.315,8.338.932,21.137,5.1,22.9,21.87.36,3.316.879,7.579,1.532,12.413l-5.248.719s-2.131,23.615-7.605,40.37h-.12Z" transform="translate(745.293 257.11)" fill="#183864"/>
    <path id="Path_23191" data-name="Path 23191" d="M243.38,166.642,256.7,134.41l-9.816,33.538Z" transform="translate(752.781 264.176)" fill="#132f4e"/>
    <path id="Path_23192" data-name="Path 23192" d="M272.3,113.15h-7.259s-10.322,11.335-16.955,11.335-3.063-11.268-3.063-11.268h-3.237a18.3,18.3,0,0,0-18.194,16.223c-.12,1.066-.226,2.064-.32,2.97-.706,6.859,27.078,11.854,27.078,11.854l14.3-.8,8.684-16.955,1.731-6.939Z" transform="translate(746.103 257.12)" fill="#183864"/>
    <path id="Path_23193" data-name="Path 23193" d="M194.347,328.959c.639,3.463,3.05,5.927,6.513,5.328l46.217-8.631a2.131,2.131,0,0,0,1.718-2.5l-.759-4.1s-48.6,8.511-53.716,9.923Z" transform="translate(736.498 325.461)" fill="#d5d5d5"/>
    <path id="Path_23194" data-name="Path 23194" d="M208.125,320.694l1.425-1.252,2.664-2.411,1.332-1.225,2.357-2.1,1.425-1.332,1.878-1.691a1.052,1.052,0,0,1,1.332,0c1.891,1.6,7.991,5.261,19.153-1.625a1.066,1.066,0,0,1,1.518.386l6.726,12.933s-48.6,8.511-53.716,9.923C196.031,331.256,202.238,325.888,208.125,320.694Z" transform="translate(736.464 322.086)" fill="#3d3d7a"/>
    <path id="Path_23195" data-name="Path 23195" d="M139.7,326.465c.08,3.53,2.064,6.34,5.594,6.247l46.99-1.145a2.144,2.144,0,0,0,2.1-2.2l-.107-4.169s-49.281.653-54.608,1.239Z" transform="translate(718.358 327.502)" fill="#d5d5d5"/>
    <path id="Path_23196" data-name="Path 23196" d="M155.127,321.211l1.612-1.012,3.063-1.958,1.532-.986L164,315.563l1.612-1.052,2.131-1.332a1.039,1.039,0,0,1,1.332.2c1.625,1.878,7.1,6.46,19.18,1.438a1.079,1.079,0,0,1,1.438.626l4.568,13.839s-49.281.653-54.608,1.239C141.448,329.708,148.481,325.393,155.127,321.211Z" transform="translate(718.352 323.46)" fill="#3d3d7a"/>
    <path id="Path_23197" data-name="Path 23197" d="M120.833,199.252,95.74,132.31H167.2L192.3,199.252Z" transform="translate(703.777 263.479)" fill="#abb5ba"/>
    <path id="Path_23198" data-name="Path 23198" d="M178.919,199.252H174.5L149.39,132.31l4.009.173,23.229,60.6Z" transform="translate(721.584 263.479)" fill="#8495a0"/>
    <path id="Path_23199" data-name="Path 23199" d="M98.62,177.14H188.6" transform="translate(704.733 278.359)" fill="none"/>
    <path id="Path_23200" data-name="Path 23200" d="M170.749,183.622h47.27l-.133-4.222h-48.1" transform="translate(728.355 279.109)" fill="#8495a0"/>
    <rect id="Rectangle_3192" data-name="Rectangle 3192" width="11.375" height="186.774" transform="translate(1088.916 475.504)" fill="#8495a0"/>
    <rect id="Rectangle_3193" data-name="Rectangle 3193" width="11.375" height="186.774" transform="translate(1027.208 475.504)" fill="#abb5ba"/>
    <rect id="Rectangle_3194" data-name="Rectangle 3194" width="11.375" height="186.774" transform="translate(829.499 475.504)" fill="#8495a0"/>
    <rect id="Rectangle_3195" data-name="Rectangle 3195" width="11.375" height="186.774" transform="translate(767.791 475.504)" fill="#abb5ba"/>
    <rect id="Rectangle_3196" data-name="Rectangle 3196" width="365.823" height="13.479" rx="4.15" transform="translate(751.369 462.731)" fill="#141b56"/>
    <path id="Path_23201" data-name="Path 23201" d="M104.7,137.59l1.212,3.263H120.15l-1.212-3.263Z" transform="translate(706.751 265.232)" fill="#8495a0"/>
    <path id="Path_23202" data-name="Path 23202" d="M211.392,149.46l-1.012,1.985,14.4,14.877v-4.369Z" transform="translate(741.828 269.172)" fill="#e8987c"/>
    <rect id="Rectangle_3197" data-name="Rectangle 3197" width="575.28" height="13.133" transform="translate(672 659.881)" fill="#a5b7c6"/>
    <path id="Path_23203" data-name="Path 23203" d="M370.918,270.2c-2.291,11.095-1.6,29.981-16.263,32.965-4,.812-7.765-1.931-10.069-5.061-3-4.116-3.716-12.8-3.676-17.781,0-4,1.332-8.324,1.825-12.307.466-4.289.852-8.591,1.332-12.88,1.811-15.464,9.883-28.423,23.548-36.135,1.052,5.075,3.463,9.323,5.594,14.238a51.261,51.261,0,0,1,2.464,6.9c1.119,4.116-.226,8.285-1.239,12.24C373,258.212,372.13,264.285,370.918,270.2Z" transform="translate(785.152 292.253)" fill="url(#linear-gradient)"/>
    <path id="Path_23204" data-name="Path 23204" d="M351.517,302.1c.107-.932.226-1.851.346-2.784a11.827,11.827,0,0,0,5.048-1.771,26.772,26.772,0,0,0,6.66-5.234c.106-.12-.067-.293-.187-.2a29.155,29.155,0,0,1-6.446,4.422,18.555,18.555,0,0,1-4.9,1.825c.146-1.105.32-2.224.506-3.33a13.731,13.731,0,0,0,5.048-2.331,59.094,59.094,0,0,0,7.219-5.514h0c-3.583,2.664-7.579,6.313-12.107,7.126.24-1.332.493-2.77.786-4.142v-.213c5.248-1.332,8.791-5.448,12.813-8.764.067,0,0-.173-.08-.12-4,3.077-7.659,6.58-12.547,8.071.413-1.971.866-3.929,1.332-5.874a28.064,28.064,0,0,0,11.854-8.4.071.071,0,1,0-.107-.093,36.108,36.108,0,0,1-11.561,7.658c.44-1.945.879-3.876,1.332-5.82a44.334,44.334,0,0,0,6.1-2.944,16.728,16.728,0,0,0,4.755-4.822c.067-.107-.093-.2-.16-.107-2.664,3.823-6.66,5.008-10.522,7.019.373-1.811.733-3.623,1.039-5.448,4.315-2.371,8.99-4.582,11.441-9.124,0,0,0-.093-.067,0-2.584,4.182-7.112,5.98-11.215,8.258l.16-.972c.266-1.692.506-3.383.759-5.075a41.634,41.634,0,0,0,7.059-3.849,13.319,13.319,0,0,0,4.315-3.676c0-.093-.093-.2-.16-.107-2.318,3.316-7.379,5.234-11.108,6.886l.719-5.128c4.156-2.517,9.03-3.9,11.588-8.431a.12.12,0,0,0-.2-.12c-2.664,4.129-7.312,5.408-11.268,7.752.146-1.066.306-2.118.466-3.183,4.475-1.652,9.683-5.394,12.054-9.443a.213.213,0,0,0-.346-.226,25.16,25.16,0,0,1-11.574,8.831c.266-1.718.533-3.436.839-5.141a.412.412,0,0,0,.067-.16,25.6,25.6,0,0,0,5.741-3.077,15.784,15.784,0,0,0,5.394-4.915c.147-.24-.24-.453-.373-.213-1.985,3.556-6.66,5.927-10.655,7.286l.36-1.865.559-2.8c1.6-1.105,3.636-1.638,5.248-2.8a30.406,30.406,0,0,0,3.809-3.476.137.137,0,1,0-.186-.2,25.069,25.069,0,0,1-5.261,4c-1.105.586-2.357.919-3.436,1.572.32-1.518.626-3.05.932-4.568h.107a.266.266,0,0,0,.266-.08c2.171-.546,3.836-2.424,5.328-4a14.572,14.572,0,0,1-5.328,3.6h-.16c.24-1.239.466-2.477.679-3.729a.28.28,0,0,0,.253-.32,23.015,23.015,0,0,0,3.183-2.664.08.08,0,1,0-.107-.12,19.084,19.084,0,0,1-3.183,2.238c.4-2.571.719-5.155.866-7.765a.186.186,0,0,0-.373,0c-.226,2.517-.6,5.008-1.026,7.485A23.241,23.241,0,0,1,360.628,226c0-.093-.187,0-.147,0a14.517,14.517,0,0,0,1.585,3.1,19.217,19.217,0,0,0,1.692,2.664c-.24,1.332-.506,2.664-.786,4a7.405,7.405,0,0,1-4-1.572,7.259,7.259,0,0,1-2.611-5.168c0-.24-.4-.24-.373,0a8.218,8.218,0,0,0,2.131,4.875,7.845,7.845,0,0,0,4.6,2.251c-.32,1.532-.653,3.05-.986,4.582a37.015,37.015,0,0,1-3.756-2.784,52.1,52.1,0,0,1-4.742-5.128c-.173-.173-.44.08-.28.253a53.963,53.963,0,0,0,4.422,4.981,25.2,25.2,0,0,0,4.235,3.223v.24h0a.24.24,0,0,0,0,.333c-.32,1.465-.639,2.93-.946,4.4a2.066,2.066,0,0,0,0,.28c-3.41-1.558-8.511-4.275-8.964-8.231a.266.266,0,1,0-.519.107c1.012,4.489,5.927,6.473,9.323,8.91-.333,1.665-.639,3.316-.919,4.995a20.312,20.312,0,0,1-6.153-3.17c-1.678-1.332-4.062-2.957-4.822-5.035h-.093c.693,2.051,2.837,3.476,4.382,4.875a16.543,16.543,0,0,0,6.526,4,.386.386,0,0,0,0,.213c-.173,1.066-.346,2.118-.506,3.183-4.142-.32-9.936-3.476-12.054-6.66h0a13.506,13.506,0,0,0,6.087,5.008,16.876,16.876,0,0,0,5.914,2.131c-.306,1.958-.586,4-.879,5.887-1.8-.666-3.7-1-5.487-1.7a13.626,13.626,0,0,1-6.22-5.328c-.093-.133-.333,0-.24.133,2.877,4.555,7.006,5.887,11.841,7.605-.253,1.612-.493,3.21-.759,4.822-4-.759-9.084-3.17-11.082-6.66-.147-.253-.546,0-.4.2a12.839,12.839,0,0,0,5.394,5.048c1.6.8,3.809,2.144,5.714,2.291v.16q-.573,3.463-1.332,6.9c-4.409-1.119-7.272-4.4-10.482-7.459-.226-.213-.573.12-.346.333,3.263,3.223,6.14,6.66,10.655,7.792-.413,1.865-.852,3.729-1.332,5.581a20.472,20.472,0,0,1-9.936-6.793c-.173-.213-.466.08-.306.293a21.923,21.923,0,0,0,10.069,7.219c-.493,2-1,4-1.505,5.967a14.651,14.651,0,0,1-9.23-6.074c-.067-.067-.186,0-.133.093,2.118,2.944,5.328,6.353,9.164,6.66l-.479,1.9c-.107.386-.213.772-.306,1.159A21.724,21.724,0,0,1,343.26,289c-.067,0-.146,0-.08.106a20.858,20.858,0,0,0,7.991,4.355c-.333,1.185-.666,2.411-1.012,3.663a17.309,17.309,0,0,0-2.211-.946,15.3,15.3,0,0,1-3.649-2.1c-.12-.08-.253.093-.133.16a15.652,15.652,0,0,0,3.157,2.131c.932.36,1.811.812,2.664,1.212-1.332,4.955-2.5,10.216-1.865,14.971.146,1.052,1.9,1.332,2.184.213A83.577,83.577,0,0,0,351.517,302.1Z" transform="translate(785.8 293.687)" fill="#747ded"/>
    <path id="Path_23205" data-name="Path 23205" d="M336.882,266.3c2.664,11.015,11.215,27.85-.826,36.747-3.237,2.4-7.858,1.532-11.268-.346-4.449-2.451-8.777-10.029-10.828-14.558-1.625-3.6-2.251-8.138-3.543-11.987-1.332-4.089-2.864-8.151-4.209-12.24-4.9-14.784-3.037-29.941,6.087-42.7,3.1,4.156,7.1,7.033,11.082,10.549a51.407,51.407,0,0,1,5.154,5.208c2.744,3.263,3.277,7.619,4,11.614C333.685,254.548,335.5,260.422,336.882,266.3Z" transform="translate(772.758 292.986)" fill="url(#linear-gradient-2)"/>
    <path id="Path_23206" data-name="Path 23206" d="M333.356,302.861c-.306-.879-.586-1.771-.866-2.664a11.76,11.76,0,0,0,3.823-3.729,26.464,26.464,0,0,0,3.8-7.552c0-.133-.187-.227-.253-.08a29.557,29.557,0,0,1-4,6.726,17.968,17.968,0,0,1-3.676,3.716c-.32-1.066-.639-2.144-.932-3.223a13.985,13.985,0,0,0,3.583-4.249,58.681,58.681,0,0,0,4.222-8.058h0c-2.144,3.876-4.2,8.91-7.991,11.561q-.559-2.038-1.039-4.076a1,1,0,0,0,0-.213c4.2-3.423,5.687-8.644,7.912-13.319,0-.08,0-.146-.107-.067-2.291,4.449-4.182,9.2-7.991,12.613-.453-1.958-.879-3.916-1.332-5.887a27.969,27.969,0,0,0,7.192-12.613.067.067,0,1,0-.133,0,35.962,35.962,0,0,1-7.246,11.814c-.426-1.931-.839-3.876-1.332-5.807a42.744,42.744,0,0,0,4.289-5.261,16.542,16.542,0,0,0,2.278-6.367.093.093,0,1,0-.186,0c-.786,4.582-3.916,7.352-6.58,10.8-.426-1.8-.866-3.6-1.332-5.328,2.917-4,6.233-7.991,6.526-13.093,0,0-.08-.067-.08,0-.586,4.875-3.929,8.418-6.66,12.214-.093-.32-.173-.639-.266-.959-.466-1.638-.959-3.276-1.465-4.915a40.7,40.7,0,0,0,4.795-6.473,13.586,13.586,0,0,0,2.357-5.141.093.093,0,1,0-.186,0c-.706,4-4.489,7.858-7.179,10.935-.493-1.652-1-3.3-1.505-4.955,2.664-4,6.54-7.352,6.953-12.533a.12.12,0,1,0-.24,0c-.653,4.861-4.342,7.991-6.939,11.787-.32-1.026-.626-2.051-.919-3.09,3.356-3.383,6.5-8.977,6.939-13.652a.2.2,0,0,0-.4,0,25.2,25.2,0,0,1-6.779,12.893c-.48-1.665-.959-3.343-1.332-5.021a.652.652,0,0,0,0-.16,25.188,25.188,0,0,0,3.9-5.221,15.73,15.73,0,0,0,2.824-6.739.213.213,0,0,0-.426,0c-.306,4-3.583,8.218-6.566,11.095-.146-.613-.32-1.225-.466-1.851-.226-.919-.44-1.838-.666-2.77.986-1.678,2.664-3.01,3.57-4.755a29.14,29.14,0,0,0,1.985-4.755.133.133,0,0,0-.24-.107,25.078,25.078,0,0,1-3.063,5.9c-.759,1-1.758,1.838-2.451,2.877-.36-1.518-.719-3.023-1.092-4.542h0a.28.28,0,0,0,.2-.186c1.745-1.412,2.464-3.823,3.117-5.887h-.08a14.652,14.652,0,0,1-3.316,5.514h-.147c-.306-1.225-.626-2.437-.972-3.663a.293.293,0,0,0,.107-.4,22.3,22.3,0,0,0,1.731-3.809.08.08,0,0,0-.147-.067,18.723,18.723,0,0,1-1.931,3.383c-.719-2.5-1.532-4.981-2.5-7.419-.093-.213-.426-.067-.346.16.866,2.371,1.585,4.782,2.238,7.219a22.709,22.709,0,0,1-5.075-3.157c-.08,0-.2,0-.12.107a14.172,14.172,0,0,0,2.744,2.131,18.543,18.543,0,0,0,2.664,1.758c.346,1.332.666,2.664.972,4a6.833,6.833,0,0,1-8.631-3.237c-.12-.213-.466,0-.333.16a8.2,8.2,0,0,0,4,3.516,7.752,7.752,0,0,0,5.115.093c.36,1.532.693,3.05,1.039,4.582a35.843,35.843,0,0,1-4.582-.946,51.7,51.7,0,0,1-6.46-2.664.188.188,0,0,0-.147.346,52.845,52.845,0,0,0,6.113,2.664,25.306,25.306,0,0,0,5.194,1.145v.306a.253.253,0,0,0,.12.32c.32,1.465.653,2.93.986,4.382a.437.437,0,0,0,.067.28c-3.756,0-9.523-.293-11.6-3.689-.2-.32-.666,0-.426.333,2.81,3.623,8.111,3.356,12.214,4.129q.6,2.477,1.332,4.915a20.1,20.1,0,0,1-6.913-.28c-2.091-.493-4.928-.959-6.5-2.517,0,0-.12,0-.067.08,1.505,1.572,4,1.958,6.047,2.571a16.529,16.529,0,0,0,7.605.892.4.4,0,0,0,.093.2c.28,1.026.573,2.064.879,3.09-3.889,1.465-10.482,1.052-13.719-.892h0a13.532,13.532,0,0,0,7.632,1.958,16.515,16.515,0,0,0,6.26-.559c.546,1.9,1.119,3.809,1.678,5.714-1.9.147-3.769.666-5.687.759a13.519,13.519,0,0,1-7.965-2.584c-.147-.093-.306.12-.16.213,4.528,2.917,8.831,2.4,13.932,1.9.466,1.558.906,3.117,1.332,4.688-3.9.986-9.563.959-12.826-1.332-.24-.16-.519.2-.28.36a12.84,12.84,0,0,0,7.126,1.891c1.8,0,4.355.346,6.153-.333v.146c.626,2.264,1.172,4.542,1.692,6.833-4.475.852-8.444-.906-12.653-2.331-.293-.093-.466.346-.173.453,4.329,1.532,8.364,3.383,12.986,2.544.413,1.865.812,3.729,1.185,5.607a20.458,20.458,0,0,1-11.787-2c-.253-.12-.4.266-.16.4a21.963,21.963,0,0,0,12.174,2.291c.4,2.011.772,4,1.145,6.047a14.651,14.651,0,0,1-10.922-1.612c-.08,0-.16.093-.08.146,3.157,1.771,7.5,3.5,11.135,2.2l.36,1.931c.08.386.146.786.213,1.185a22.07,22.07,0,0,1-8.911-.12c-.08,0-.106.107,0,.133a20.951,20.951,0,0,0,9.044.573q.306,1.838.639,3.756a16.279,16.279,0,0,0-2.411.08,16.516,16.516,0,0,1-4.209-.373c-.133,0-.173.186,0,.2a16.379,16.379,0,0,0,3.756.613c1-.08,1.985,0,2.983-.067.879,5.061,2.038,10.322,4.622,14.371.573.892,2.291.4,2.064-.733A84.285,84.285,0,0,0,333.356,302.861Z" transform="translate(773.368 294.554)" fill="#747ded"/>
    <path id="Path_23207" data-name="Path 23207" d="M356.974,263.7c.626,14,7.179,36.454-9.523,44.5-4.489,2.158-9.9,0-13.6-3.037-4.861-4-8.351-14.225-9.8-20.205-1.145-4.742-.866-10.416-1.545-15.317-.746-5.328-1.585-10.575-2.291-15.876-2.517-19.1,3.237-37.094,17.315-50.493,2.81,5.767,7.006,10.189,11.028,15.4a62.842,62.842,0,0,1,5.061,7.512c2.6,4.608,2.238,10.029,2.224,15.064C355.815,248.7,356.641,256.254,356.974,263.7Z" transform="translate(778.093 287.032)" fill="url(#linear-gradient-3)"/>
    <path id="Path_23208" data-name="Path 23208" d="M343.784,307.633c-.16-1.145-.293-2.3-.44-3.45a14.9,14.9,0,0,0,5.527-3.649,33.3,33.3,0,0,0,6.367-8.3c.093-.173-.173-.32-.293-.173a36.867,36.867,0,0,1-6.393,7.259,22.643,22.643,0,0,1-5.328,3.663c-.16-1.332-.28-2.757-.4-4.129,2.118-.826,3.769-2.77,5.328-4.342a69.858,69.858,0,0,0,6.993-8.817h0c-3.5,4.209-7.166,9.869-12.36,12.214-.133-1.731-.24-3.476-.32-5.208v-.266c5.887-3.183,8.9-9.19,12.706-14.4.067-.093,0-.2-.12-.12-3.823,4.888-7.206,10.216-12.627,13.492-.08-2.491-.146-4.968-.213-7.445a34.63,34.63,0,0,0,11.668-13.679.08.08,0,1,0-.133-.08c-3.037,5.328-6.953,8.937-11.561,12.693,0-2.464-.12-4.915-.213-7.365,2.158-1.838,4.555-3.223,6.433-5.328a20.7,20.7,0,0,0,4.235-7.219.12.12,0,0,0-.213-.08c-2.038,5.394-6.473,7.991-10.509,11.6-.093-2.278-.226-4.568-.4-6.846,4.449-4.156,9.4-8.218,10.962-14.411,0,0-.08-.093-.093,0-1.838,5.807-6.726,9.323-10.962,13.319,0-.4-.067-.812-.093-1.212-.2-2.118-.413-4.222-.639-6.327a52.4,52.4,0,0,0,7.312-6.753,16.875,16.875,0,0,0,4.062-5.714c0-.133-.173-.226-.226-.08-1.771,4.675-7.259,8.511-11.241,11.628-.226-2.131-.466-4.249-.693-6.38,4.222-4.275,9.656-7.419,11.348-13.625a.147.147,0,0,0-.28-.093c-1.918,5.767-7.126,8.711-11.175,12.72l-.4-4c4.875-3.33,9.989-9.417,11.6-14.984a.253.253,0,0,0-.466-.16A31.167,31.167,0,0,1,339.295,245.5c-.2-2.131-.386-4.275-.546-6.42a.531.531,0,0,0,0-.2,31.967,31.967,0,0,0,5.94-5.434,19.3,19.3,0,0,0,4.981-7.539c.107-.333-.413-.466-.506-.147-1.332,4.875-6.26,9.164-10.535,11.987,0-.786-.107-1.572-.146-2.357,0-1.172-.12-2.344-.173-3.516,1.585-1.811,3.863-3.063,5.448-4.955a37.606,37.606,0,0,0,3.516-5.328.164.164,0,0,0-.28-.173,30.93,30.93,0,0,1-5.035,6.433c-1.145,1.039-2.557,1.825-3.636,2.93l-.36-5.727h.08a.373.373,0,0,0,.293-.186c2.437-1.332,3.876-4.076,5.141-6.433,0,0,0-.107-.08,0a18.061,18.061,0,0,1-5.328,5.94h-.106q-.12-2.331-.32-4.675a.36.36,0,0,0,.213-.466,28.612,28.612,0,0,0,3-4.236.107.107,0,0,0-.173-.107,23.057,23.057,0,0,1-3.13,3.663,93.769,93.769,0,0,0-1.332-9.59.233.233,0,1,0-.453.107c.493,3.09.8,6.18,1.039,9.323a28.317,28.317,0,0,1-5.448-5.008c-.067-.093-.24,0-.173.107a17.317,17.317,0,0,0,2.85,3.223,23.209,23.209,0,0,0,2.85,2.757c.12,1.665.2,3.343.28,5.021a9.111,9.111,0,0,1-5.328-.679,8.937,8.937,0,0,1-4.462-5.248c-.093-.28-.546-.173-.453.107a10.215,10.215,0,0,0,4,5.208,9.7,9.7,0,0,0,6.193,1.332c.08,1.931.147,3.876.2,5.807a44.61,44.61,0,0,1-5.328-2.211c-2.784-1.252-4.715-3.13-7.246-4.7a.231.231,0,0,0-.253.386c2.384,1.532,4.209,3.37,6.806,4.635a31.317,31.317,0,0,0,6.06,2.584v.306h0a.306.306,0,0,0,.067.426c0,1.851.12,3.7.187,5.554v.346c-4.555-.839-11.508-2.544-13.239-7.152a.333.333,0,1,0-.586.293c2.557,5.061,9.07,5.954,13.879,7.858.107,2.091.24,4.182.413,6.26a25.041,25.041,0,0,1-8.338-1.931c-2.424-1.092-5.78-2.318-7.312-4.568,0-.067-.146,0-.107.08,1.465,2.264,4.462,3.316,6.753,4.528a20.339,20.339,0,0,0,9.044,2.837.466.466,0,0,0,.067.266c.107,1.332.226,2.664.346,4-5.061.879-12.973-1.132-16.462-4.262h0a16.769,16.769,0,0,0,8.831,4.156,20.8,20.8,0,0,0,7.725.773c.24,2.437.493,4.888.733,7.326-2.357-.253-4.742-.067-7.086-.386a16.729,16.729,0,0,1-9.07-4.462c-.16-.147-.413.067-.253.213,4.822,4.608,10.189,4.968,16.5,5.541.2,2.011.386,4,.546,6.02-4.968.293-11.841-1.052-15.29-4.568-.253-.266-.666.12-.413.373a15.783,15.783,0,0,0,8.231,4c2.158.479,5.208,1.425,7.539,1.026v.186c.226,2.89.373,5.794.479,8.7-5.647,0-10.056-3.063-14.851-5.767-.333-.186-.653.306-.32.506,4.915,2.877,9.323,6.06,15.2,6.1.08,2.371.12,4.728.146,7.086a25.306,25.306,0,0,1-13.972-5.141c-.28-.2-.546.24-.28.453a27.091,27.091,0,0,0,14.251,5.607V291.9c-4.822.466-9.137-1.545-12.92-4.489-.093-.067-.213.08-.12.146,3.423,2.89,8.3,6.007,13.026,5.261v3.916a27.212,27.212,0,0,1-10.722-2.424.093.093,0,0,0,0,.16,25.88,25.88,0,0,0,10.855,2.8c0,1.532-.067,3.1-.093,4.7a21.183,21.183,0,0,0-2.944-.453,19.86,19.86,0,0,1-5.021-1.425c-.16,0-.266.187-.107.24a20.43,20.43,0,0,0,4.422,1.6c1.239.146,2.437.413,3.636.626-.093,6.34.093,13.013,2.3,18.527.493,1.225,2.664,1.026,2.664-.4C345.555,316.317,344.383,311.908,343.784,307.633Z" transform="translate(778.896 288.863)" fill="#747ded"/>
    <path id="Path_23209" data-name="Path 23209" d="M365.991,286.88l-.613,11.388-.972,17.714L362.821,345.1H323.41l-1.585-29.116-.972-17.714-.613-11.388Z" transform="translate(778.292 314.783)" fill="#95a8b5"/>
    <path id="Path_23210" data-name="Path 23210" d="M365.226,295.43l-.133,2.278-.12,2.371-.719,13.066H321.672l-.719-13.066-.12-2.371-.133-2.278Z" transform="translate(778.445 317.621)" fill="#a5b7c6"/>
    <path id="Path_23211" data-name="Path 23211" d="M365.06,297.14l-.12,2.371H320.92l-.12-2.371Z" transform="translate(778.478 318.189)" fill="#95a8b5"/>
    <g id="react" transform="translate(769.436 236)">
      <g id="Group_1309" data-name="Group 1309">
        <path id="Path_23124" data-name="Path 23124" d="M26.642,15.741c2.475-2.526,3.976-4.964,4.233-6.884a3.309,3.309,0,0,0-.753-2.781,4.958,4.958,0,0,0-3.847-1.334,17.026,17.026,0,0,0-4.775.81C20.1,2.02,18.007,0,15.741,0S11.385,2.02,9.983,5.552a17.038,17.038,0,0,0-4.775-.81A4.964,4.964,0,0,0,1.36,6.076a3.309,3.309,0,0,0-.753,2.78c.257,1.919,1.759,4.358,4.234,6.885C2.365,18.267.864,20.706.607,22.625a3.3,3.3,0,0,0,.753,2.781,4.961,4.961,0,0,0,3.848,1.335,16.987,16.987,0,0,0,4.775-.812c1.4,3.533,3.493,5.553,5.758,5.553S20.1,29.461,21.5,25.929a17.065,17.065,0,0,0,4.775.812,4.962,4.962,0,0,0,3.847-1.334,3.309,3.309,0,0,0,.753-2.782C30.618,20.706,29.117,18.268,26.642,15.741Zm-3.687-.922c.361.306.711.615,1.045.922-.334.308-.684.616-1.045.922.01-.306.015-.612.015-.922S22.964,15.124,22.955,14.819Zm5.8-5.917c-.206,1.525-1.489,3.558-3.622,5.74-.714-.659-1.49-1.315-2.31-1.955a26.483,26.483,0,0,0-1.011-5.31c3.235-.965,5.721-.92,6.592.047A1.761,1.761,0,0,1,28.757,8.9ZM22.826,18.8c.819-.641,1.595-1.3,2.31-1.955,2.133,2.182,3.416,4.215,3.622,5.74a1.761,1.761,0,0,1-.352,1.479c-.869.967-3.355,1.012-6.591.047A26.479,26.479,0,0,0,22.826,18.8Zm-1.784,1.322a24.673,24.673,0,0,1-.759,3.47c-.925-.338-1.88-.741-2.849-1.2.989-.558,1.874-1.1,2.694-1.642C20.44,20.537,20.743,20.328,21.042,20.117Zm-5.3,9.274c-1.486,0-2.949-1.574-4.034-4.328a35.623,35.623,0,0,0,4.035-1.758,35.7,35.7,0,0,0,4.034,1.758C18.69,27.816,17.227,29.391,15.741,29.391Zm-4.387-8.647c.815.542,1.7,1.082,2.693,1.642-.969.459-1.924.862-2.849,1.2a24.409,24.409,0,0,1-.759-3.471Q10.887,20.434,11.354,20.744Zm-.915-9.377A24.657,24.657,0,0,1,11.2,7.9c.928.339,1.884.742,2.85,1.2-.987.557-1.872,1.1-2.694,1.643Q10.888,11.05,10.439,11.367Zm5.3-9.275c1.487,0,2.95,1.574,4.035,4.328a35.8,35.8,0,0,0-4.035,1.758,35.862,35.862,0,0,0-4.035-1.759C12.792,3.666,14.254,2.092,15.741,2.092Zm4.388,8.647c-.819-.544-1.7-1.084-2.693-1.643.97-.46,1.926-.863,2.849-1.2a24.487,24.487,0,0,1,.76,3.469C20.743,11.154,20.44,10.945,20.129,10.739Zm1.231,5c0,.722-.029,1.465-.088,2.269-.687.52-1.379,1.01-2.058,1.461-1.1.736-2.273,1.432-3.473,2.072-1.2-.639-2.365-1.335-3.473-2.072-.682-.453-1.374-.945-2.059-1.463-.059-.8-.088-1.546-.088-2.268s.029-1.465.088-2.268c.688-.52,1.38-1.011,2.059-1.462,1.1-.735,2.273-1.432,3.473-2.073,1.2.638,2.363,1.335,3.473,2.072.679.451,1.371.943,2.058,1.461C21.331,14.276,21.36,15.02,21.36,15.741Zm-12.833.922c-.357-.3-.707-.612-1.044-.922.335-.31.685-.617,1.044-.922-.008.305-.013.613-.013.922S8.519,16.357,8.527,16.663Zm.128-3.975c-.819.64-1.594,1.3-2.307,1.954C4.214,12.459,2.931,10.427,2.724,8.9a1.766,1.766,0,0,1,.351-1.477,3.351,3.351,0,0,1,2.5-.757,14.726,14.726,0,0,1,4.088.71A26.606,26.606,0,0,0,8.655,12.688ZM2.724,22.581c.206-1.524,1.49-3.558,3.624-5.741.712.657,1.488,1.312,2.307,1.955a26.548,26.548,0,0,0,1.012,5.311c-3.235.965-5.721.918-6.592-.047A1.769,1.769,0,0,1,2.724,22.581Z" fill="#fff"/>
        <circle id="Ellipse_19" data-name="Ellipse 19" cx="3.278" cy="3.278" r="3.278" transform="translate(12.463 12.463)" fill="#fff"/>
      </g>
    </g>
  </g>
</svg>
